<svg xmlns="http://www.w3.org/2000/svg" viewBox="0 0 64 64">
<rect width="64" height="64" rx="14" fill="#05060B"/>
<line x1="32.00" y1="10.00" x2="36.78" y2="12.75" stroke="#56a4e0" stroke-width="0.45" opacity="0.6"/>
<line x1="32.00" y1="10.00" x2="27.21" y2="12.75" stroke="#56a4e0" stroke-width="0.45" opacity="0.6"/>
<line x1="32.00" y1="10.00" x2="32.00" y2="15.50" stroke="#56a4e0" stroke-width="0.18" opacity="0.35" stroke-dasharray="0.8,1.2"/>
<line x1="27.21" y1="12.75" x2="32.00" y2="15.50" stroke="#49b1dc" stroke-width="0.18" opacity="0.6"/>
<line x1="27.21" y1="12.75" x2="22.43" y2="15.50" stroke="#49b1dc" stroke-width="0.45" opacity="0.6"/>
<line x1="27.21" y1="12.75" x2="27.21" y2="18.25" stroke="#49b1dc" stroke-width="0.18" opacity="0.35" stroke-dasharray="0.8,1.2"/>
<line x1="22.43" y1="15.50" x2="27.21" y2="18.25" stroke="#3cbed8" stroke-width="0.18" opacity="0.6"/>
<line x1="22.43" y1="15.50" x2="17.65" y2="18.25" stroke="#3cbed8" stroke-width="0.45" opacity="0.6"/>
<line x1="22.43" y1="15.50" x2="22.43" y2="21.00" stroke="#3cbed8" stroke-width="0.18" opacity="0.35" stroke-dasharray="0.8,1.2"/>
<line x1="17.65" y1="18.25" x2="22.43" y2="21.00" stroke="#2fccd4" stroke-width="0.18" opacity="0.6"/>
<line x1="17.65" y1="18.25" x2="12.86" y2="21.00" stroke="#2fccd4" stroke-width="0.45" opacity="0.6"/>
<line x1="17.65" y1="18.25" x2="17.65" y2="23.75" stroke="#2fccd4" stroke-width="0.18" opacity="0.35" stroke-dasharray="0.8,1.2"/>
<line x1="12.86" y1="21.00" x2="17.65" y2="23.75" stroke="#22d9d0" stroke-width="0.45" opacity="0.6"/>
<line x1="36.78" y1="12.75" x2="41.57" y2="15.50" stroke="#6497e4" stroke-width="0.45" opacity="0.6"/>
<line x1="36.78" y1="12.75" x2="32.00" y2="15.50" stroke="#6497e4" stroke-width="0.18" opacity="0.6"/>
<line x1="36.78" y1="12.75" x2="36.78" y2="18.25" stroke="#6497e4" stroke-width="0.18" opacity="0.35" stroke-dasharray="0.8,1.2"/>
<line x1="32.00" y1="15.50" x2="36.78" y2="18.25" stroke="#56a4e0" stroke-width="0.18" opacity="0.6"/>
<line x1="32.00" y1="15.50" x2="27.21" y2="18.25" stroke="#56a4e0" stroke-width="0.18" opacity="0.6"/>
<line x1="32.00" y1="15.50" x2="32.00" y2="21.00" stroke="#56a4e0" stroke-width="0.18" opacity="0.35" stroke-dasharray="0.8,1.2"/>
<line x1="27.21" y1="18.25" x2="32.00" y2="21.00" stroke="#49b1dc" stroke-width="0.18" opacity="0.6"/>
<line x1="27.21" y1="18.25" x2="22.43" y2="21.00" stroke="#49b1dc" stroke-width="0.18" opacity="0.6"/>
<line x1="27.21" y1="18.25" x2="27.21" y2="23.75" stroke="#49b1dc" stroke-width="0.18" opacity="0.35" stroke-dasharray="0.8,1.2"/>
<line x1="22.43" y1="21.00" x2="27.21" y2="23.75" stroke="#3cbed8" stroke-width="0.18" opacity="0.6"/>
<line x1="22.43" y1="21.00" x2="17.65" y2="23.75" stroke="#3cbed8" stroke-width="0.18" opacity="0.6"/>
<line x1="22.43" y1="21.00" x2="22.43" y2="26.50" stroke="#3cbed8" stroke-width="0.18" opacity="0.35" stroke-dasharray="0.8,1.2"/>
<line x1="17.65" y1="23.75" x2="22.43" y2="26.50" stroke="#2fccd4" stroke-width="0.45" opacity="0.6"/>
<line x1="41.57" y1="15.50" x2="46.35" y2="18.25" stroke="#718ae8" stroke-width="0.45" opacity="0.6"/>
<line x1="41.57" y1="15.50" x2="36.78" y2="18.25" stroke="#718ae8" stroke-width="0.18" opacity="0.6"/>
<line x1="41.57" y1="15.50" x2="41.57" y2="21.00" stroke="#718ae8" stroke-width="0.18" opacity="0.35" stroke-dasharray="0.8,1.2"/>
<line x1="36.78" y1="18.25" x2="41.57" y2="21.00" stroke="#6497e4" stroke-width="0.18" opacity="0.6"/>
<line x1="36.78" y1="18.25" x2="32.00" y2="21.00" stroke="#6497e4" stroke-width="0.18" opacity="0.6"/>
<line x1="36.78" y1="18.25" x2="36.78" y2="23.75" stroke="#6497e4" stroke-width="0.18" opacity="0.35" stroke-dasharray="0.8,1.2"/>
<line x1="32.00" y1="21.00" x2="36.78" y2="23.75" stroke="#56a4e0" stroke-width="0.18" opacity="0.6"/>
<line x1="32.00" y1="21.00" x2="27.21" y2="23.75" stroke="#56a4e0" stroke-width="0.18" opacity="0.6"/>
<line x1="32.00" y1="21.00" x2="32.00" y2="26.50" stroke="#56a4e0" stroke-width="0.18" opacity="0.35" stroke-dasharray="0.8,1.2"/>
<line x1="27.21" y1="23.75" x2="32.00" y2="26.50" stroke="#49b1dc" stroke-width="0.18" opacity="0.6"/>
<line x1="27.21" y1="23.75" x2="22.43" y2="26.50" stroke="#49b1dc" stroke-width="0.18" opacity="0.6"/>
<line x1="27.21" y1="23.75" x2="27.21" y2="29.25" stroke="#49b1dc" stroke-width="0.18" opacity="0.35" stroke-dasharray="0.8,1.2"/>
<line x1="22.43" y1="26.50" x2="27.21" y2="29.25" stroke="#3cbed8" stroke-width="0.45" opacity="0.6"/>
<line x1="46.35" y1="18.25" x2="51.14" y2="21.00" stroke="#7e7cec" stroke-width="0.45" opacity="0.6"/>
<line x1="46.35" y1="18.25" x2="41.57" y2="21.00" stroke="#7e7cec" stroke-width="0.18" opacity="0.6"/>
<line x1="46.35" y1="18.25" x2="46.35" y2="23.75" stroke="#7e7cec" stroke-width="0.18" opacity="0.35" stroke-dasharray="0.8,1.2"/>
<line x1="41.57" y1="21.00" x2="46.35" y2="23.75" stroke="#718ae8" stroke-width="0.18" opacity="0.6"/>
<line x1="41.57" y1="21.00" x2="36.78" y2="23.75" stroke="#718ae8" stroke-width="0.18" opacity="0.6"/>
<line x1="41.57" y1="21.00" x2="41.57" y2="26.50" stroke="#718ae8" stroke-width="0.18" opacity="0.35" stroke-dasharray="0.8,1.2"/>
<line x1="36.78" y1="23.75" x2="41.57" y2="26.50" stroke="#6497e4" stroke-width="0.18" opacity="0.6"/>
<line x1="36.78" y1="23.75" x2="32.00" y2="26.50" stroke="#6497e4" stroke-width="0.18" opacity="0.6"/>
<line x1="36.78" y1="23.75" x2="36.78" y2="29.25" stroke="#6497e4" stroke-width="0.18" opacity="0.35" stroke-dasharray="0.8,1.2"/>
<line x1="32.00" y1="26.50" x2="36.78" y2="29.25" stroke="#56a4e0" stroke-width="0.18" opacity="0.6"/>
<line x1="32.00" y1="26.50" x2="27.21" y2="29.25" stroke="#56a4e0" stroke-width="0.18" opacity="0.6"/>
<line x1="32.00" y1="26.50" x2="32.00" y2="32.00" stroke="#56a4e0" stroke-width="0.18" opacity="0.35" stroke-dasharray="0.8,1.2"/>
<line x1="27.21" y1="29.25" x2="32.00" y2="32.00" stroke="#49b1dc" stroke-width="0.45" opacity="0.6"/>
<line x1="51.14" y1="21.00" x2="46.35" y2="23.75" stroke="#eaf6ff" stroke-width="0.45" opacity="0.6"/>
<line x1="46.35" y1="23.75" x2="41.57" y2="26.50" stroke="#7e7cec" stroke-width="0.45" opacity="0.6"/>
<line x1="41.57" y1="26.50" x2="36.78" y2="29.25" stroke="#718ae8" stroke-width="0.45" opacity="0.6"/>
<line x1="36.78" y1="29.25" x2="32.00" y2="32.00" stroke="#6497e4" stroke-width="0.45" opacity="0.6"/>
<line x1="12.86" y1="43.00" x2="17.65" y2="45.75" stroke="#22d9d0" stroke-width="0.45" opacity="0.6"/>
<line x1="12.86" y1="43.00" x2="12.86" y2="37.50" stroke="#22d9d0" stroke-width="0.45" opacity="0.6"/>
<line x1="12.86" y1="43.00" x2="17.65" y2="40.25" stroke="#22d9d0" stroke-width="0.18" opacity="0.35" stroke-dasharray="0.8,1.2"/>
<line x1="12.86" y1="37.50" x2="17.65" y2="40.25" stroke="#22d9d0" stroke-width="0.18" opacity="0.6"/>
<line x1="12.86" y1="37.50" x2="12.86" y2="32.00" stroke="#22d9d0" stroke-width="0.45" opacity="0.6"/>
<line x1="12.86" y1="37.50" x2="17.65" y2="34.75" stroke="#22d9d0" stroke-width="0.18" opacity="0.35" stroke-dasharray="0.8,1.2"/>
<line x1="12.86" y1="32.00" x2="17.65" y2="34.75" stroke="#22d9d0" stroke-width="0.18" opacity="0.6"/>
<line x1="12.86" y1="32.00" x2="12.86" y2="26.50" stroke="#22d9d0" stroke-width="0.45" opacity="0.6"/>
<line x1="12.86" y1="32.00" x2="17.65" y2="29.25" stroke="#22d9d0" stroke-width="0.18" opacity="0.35" stroke-dasharray="0.8,1.2"/>
<line x1="12.86" y1="26.50" x2="17.65" y2="29.25" stroke="#22d9d0" stroke-width="0.18" opacity="0.6"/>
<line x1="12.86" y1="26.50" x2="12.86" y2="21.00" stroke="#22d9d0" stroke-width="0.45" opacity="0.6"/>
<line x1="12.86" y1="26.50" x2="17.65" y2="23.75" stroke="#22d9d0" stroke-width="0.18" opacity="0.35" stroke-dasharray="0.8,1.2"/>
<line x1="12.86" y1="21.00" x2="17.65" y2="23.75" stroke="#22d9d0" stroke-width="0.45" opacity="0.6"/>
<line x1="17.65" y1="45.75" x2="22.43" y2="48.50" stroke="#2fccd4" stroke-width="0.45" opacity="0.6"/>
<line x1="17.65" y1="45.75" x2="17.65" y2="40.25" stroke="#2fccd4" stroke-width="0.18" opacity="0.6"/>
<line x1="17.65" y1="45.75" x2="22.43" y2="43.00" stroke="#2fccd4" stroke-width="0.18" opacity="0.35" stroke-dasharray="0.8,1.2"/>
<line x1="17.65" y1="40.25" x2="22.43" y2="43.00" stroke="#2fccd4" stroke-width="0.18" opacity="0.6"/>
<line x1="17.65" y1="40.25" x2="17.65" y2="34.75" stroke="#2fccd4" stroke-width="0.18" opacity="0.6"/>
<line x1="17.65" y1="40.25" x2="22.43" y2="37.50" stroke="#2fccd4" stroke-width="0.18" opacity="0.35" stroke-dasharray="0.8,1.2"/>
<line x1="17.65" y1="34.75" x2="22.43" y2="37.50" stroke="#2fccd4" stroke-width="0.18" opacity="0.6"/>
<line x1="17.65" y1="34.75" x2="17.65" y2="29.25" stroke="#2fccd4" stroke-width="0.18" opacity="0.6"/>
<line x1="17.65" y1="34.75" x2="22.43" y2="32.00" stroke="#2fccd4" stroke-width="0.18" opacity="0.35" stroke-dasharray="0.8,1.2"/>
<line x1="17.65" y1="29.25" x2="22.43" y2="32.00" stroke="#2fccd4" stroke-width="0.18" opacity="0.6"/>
<line x1="17.65" y1="29.25" x2="17.65" y2="23.75" stroke="#2fccd4" stroke-width="0.18" opacity="0.6"/>
<line x1="17.65" y1="29.25" x2="22.43" y2="26.50" stroke="#2fccd4" stroke-width="0.18" opacity="0.35" stroke-dasharray="0.8,1.2"/>
<line x1="17.65" y1="23.75" x2="22.43" y2="26.50" stroke="#2fccd4" stroke-width="0.45" opacity="0.6"/>
<line x1="22.43" y1="48.50" x2="27.21" y2="51.25" stroke="#3cbed8" stroke-width="0.45" opacity="0.6"/>
<line x1="22.43" y1="48.50" x2="22.43" y2="43.00" stroke="#3cbed8" stroke-width="0.18" opacity="0.6"/>
<line x1="22.43" y1="48.50" x2="27.21" y2="45.75" stroke="#3cbed8" stroke-width="0.18" opacity="0.35" stroke-dasharray="0.8,1.2"/>
<line x1="22.43" y1="43.00" x2="27.21" y2="45.75" stroke="#3cbed8" stroke-width="0.18" opacity="0.6"/>
<line x1="22.43" y1="43.00" x2="22.43" y2="37.50" stroke="#3cbed8" stroke-width="0.18" opacity="0.6"/>
<line x1="22.43" y1="43.00" x2="27.21" y2="40.25" stroke="#3cbed8" stroke-width="0.18" opacity="0.35" stroke-dasharray="0.8,1.2"/>
<line x1="22.43" y1="37.50" x2="27.21" y2="40.25" stroke="#3cbed8" stroke-width="0.18" opacity="0.6"/>
<line x1="22.43" y1="37.50" x2="22.43" y2="32.00" stroke="#3cbed8" stroke-width="0.18" opacity="0.6"/>
<line x1="22.43" y1="37.50" x2="27.21" y2="34.75" stroke="#3cbed8" stroke-width="0.18" opacity="0.35" stroke-dasharray="0.8,1.2"/>
<line x1="22.43" y1="32.00" x2="27.21" y2="34.75" stroke="#3cbed8" stroke-width="0.18" opacity="0.6"/>
<line x1="22.43" y1="32.00" x2="22.43" y2="26.50" stroke="#3cbed8" stroke-width="0.18" opacity="0.6"/>
<line x1="22.43" y1="32.00" x2="27.21" y2="29.25" stroke="#3cbed8" stroke-width="0.18" opacity="0.35" stroke-dasharray="0.8,1.2"/>
<line x1="22.43" y1="26.50" x2="27.21" y2="29.25" stroke="#3cbed8" stroke-width="0.45" opacity="0.6"/>
<line x1="27.21" y1="51.25" x2="32.00" y2="54.00" stroke="#49b1dc" stroke-width="0.45" opacity="0.6"/>
<line x1="27.21" y1="51.25" x2="27.21" y2="45.75" stroke="#49b1dc" stroke-width="0.18" opacity="0.6"/>
<line x1="27.21" y1="51.25" x2="32.00" y2="48.50" stroke="#49b1dc" stroke-width="0.18" opacity="0.35" stroke-dasharray="0.8,1.2"/>
<line x1="27.21" y1="45.75" x2="32.00" y2="48.50" stroke="#49b1dc" stroke-width="0.18" opacity="0.6"/>
<line x1="27.21" y1="45.75" x2="27.21" y2="40.25" stroke="#49b1dc" stroke-width="0.18" opacity="0.6"/>
<line x1="27.21" y1="45.75" x2="32.00" y2="43.00" stroke="#49b1dc" stroke-width="0.18" opacity="0.35" stroke-dasharray="0.8,1.2"/>
<line x1="27.21" y1="40.25" x2="32.00" y2="43.00" stroke="#49b1dc" stroke-width="0.18" opacity="0.6"/>
<line x1="27.21" y1="40.25" x2="27.21" y2="34.75" stroke="#49b1dc" stroke-width="0.18" opacity="0.6"/>
<line x1="27.21" y1="40.25" x2="32.00" y2="37.50" stroke="#49b1dc" stroke-width="0.18" opacity="0.35" stroke-dasharray="0.8,1.2"/>
<line x1="27.21" y1="34.75" x2="32.00" y2="37.50" stroke="#49b1dc" stroke-width="0.18" opacity="0.6"/>
<line x1="27.21" y1="34.75" x2="27.21" y2="29.25" stroke="#49b1dc" stroke-width="0.18" opacity="0.6"/>
<line x1="27.21" y1="34.75" x2="32.00" y2="32.00" stroke="#49b1dc" stroke-width="0.18" opacity="0.35" stroke-dasharray="0.8,1.2"/>
<line x1="27.21" y1="29.25" x2="32.00" y2="32.00" stroke="#49b1dc" stroke-width="0.45" opacity="0.6"/>
<line x1="32.00" y1="54.00" x2="32.00" y2="48.50" stroke="#56a4e0" stroke-width="0.45" opacity="0.6"/>
<line x1="32.00" y1="48.50" x2="32.00" y2="43.00" stroke="#56a4e0" stroke-width="0.45" opacity="0.6"/>
<line x1="32.00" y1="43.00" x2="32.00" y2="37.50" stroke="#56a4e0" stroke-width="0.45" opacity="0.6"/>
<line x1="32.00" y1="37.50" x2="32.00" y2="32.00" stroke="#56a4e0" stroke-width="0.45" opacity="0.6"/>
<line x1="51.14" y1="43.00" x2="46.35" y2="45.75" stroke="#8b6ff0" stroke-width="0.45" opacity="0.6"/>
<line x1="51.14" y1="43.00" x2="51.14" y2="37.50" stroke="#8b6ff0" stroke-width="0.45" opacity="0.6"/>
<line x1="51.14" y1="43.00" x2="46.35" y2="40.25" stroke="#8b6ff0" stroke-width="0.18" opacity="0.35" stroke-dasharray="0.8,1.2"/>
<line x1="51.14" y1="37.50" x2="46.35" y2="40.25" stroke="#8b6ff0" stroke-width="0.18" opacity="0.6"/>
<line x1="51.14" y1="37.50" x2="51.14" y2="32.00" stroke="#8b6ff0" stroke-width="0.45" opacity="0.6"/>
<line x1="51.14" y1="37.50" x2="46.35" y2="34.75" stroke="#8b6ff0" stroke-width="0.18" opacity="0.35" stroke-dasharray="0.8,1.2"/>
<line x1="51.14" y1="32.00" x2="46.35" y2="34.75" stroke="#8b6ff0" stroke-width="0.18" opacity="0.6"/>
<line x1="51.14" y1="32.00" x2="51.14" y2="26.50" stroke="#8b6ff0" stroke-width="0.45" opacity="0.6"/>
<line x1="51.14" y1="32.00" x2="46.35" y2="29.25" stroke="#8b6ff0" stroke-width="0.18" opacity="0.35" stroke-dasharray="0.8,1.2"/>
<line x1="51.14" y1="26.50" x2="46.35" y2="29.25" stroke="#8b6ff0" stroke-width="0.18" opacity="0.6"/>
<line x1="51.14" y1="26.50" x2="51.14" y2="21.00" stroke="#8b6ff0" stroke-width="0.45" opacity="0.6"/>
<line x1="51.14" y1="26.50" x2="46.35" y2="23.75" stroke="#8b6ff0" stroke-width="0.18" opacity="0.35" stroke-dasharray="0.8,1.2"/>
<line x1="51.14" y1="21.00" x2="46.35" y2="23.75" stroke="#eaf6ff" stroke-width="0.45" opacity="0.6"/>
<line x1="46.35" y1="45.75" x2="41.57" y2="48.50" stroke="#7e7cec" stroke-width="0.45" opacity="0.6"/>
<line x1="46.35" y1="45.75" x2="46.35" y2="40.25" stroke="#7e7cec" stroke-width="0.18" opacity="0.6"/>
<line x1="46.35" y1="45.75" x2="41.57" y2="43.00" stroke="#7e7cec" stroke-width="0.18" opacity="0.35" stroke-dasharray="0.8,1.2"/>
<line x1="46.35" y1="40.25" x2="41.57" y2="43.00" stroke="#7e7cec" stroke-width="0.18" opacity="0.6"/>
<line x1="46.35" y1="40.25" x2="46.35" y2="34.75" stroke="#7e7cec" stroke-width="0.18" opacity="0.6"/>
<line x1="46.35" y1="40.25" x2="41.57" y2="37.50" stroke="#7e7cec" stroke-width="0.18" opacity="0.35" stroke-dasharray="0.8,1.2"/>
<line x1="46.35" y1="34.75" x2="41.57" y2="37.50" stroke="#7e7cec" stroke-width="0.18" opacity="0.6"/>
<line x1="46.35" y1="34.75" x2="46.35" y2="29.25" stroke="#7e7cec" stroke-width="0.18" opacity="0.6"/>
<line x1="46.35" y1="34.75" x2="41.57" y2="32.00" stroke="#7e7cec" stroke-width="0.18" opacity="0.35" stroke-dasharray="0.8,1.2"/>
<line x1="46.35" y1="29.25" x2="41.57" y2="32.00" stroke="#7e7cec" stroke-width="0.18" opacity="0.6"/>
<line x1="46.35" y1="29.25" x2="46.35" y2="23.75" stroke="#7e7cec" stroke-width="0.18" opacity="0.6"/>
<line x1="46.35" y1="29.25" x2="41.57" y2="26.50" stroke="#7e7cec" stroke-width="0.18" opacity="0.35" stroke-dasharray="0.8,1.2"/>
<line x1="46.35" y1="23.75" x2="41.57" y2="26.50" stroke="#7e7cec" stroke-width="0.45" opacity="0.6"/>
<line x1="41.57" y1="48.50" x2="36.78" y2="51.25" stroke="#718ae8" stroke-width="0.45" opacity="0.6"/>
<line x1="41.57" y1="48.50" x2="41.57" y2="43.00" stroke="#718ae8" stroke-width="0.18" opacity="0.6"/>
<line x1="41.57" y1="48.50" x2="36.78" y2="45.75" stroke="#718ae8" stroke-width="0.18" opacity="0.35" stroke-dasharray="0.8,1.2"/>
<line x1="41.57" y1="43.00" x2="36.78" y2="45.75" stroke="#718ae8" stroke-width="0.18" opacity="0.6"/>
<line x1="41.57" y1="43.00" x2="41.57" y2="37.50" stroke="#718ae8" stroke-width="0.18" opacity="0.6"/>
<line x1="41.57" y1="43.00" x2="36.78" y2="40.25" stroke="#718ae8" stroke-width="0.18" opacity="0.35" stroke-dasharray="0.8,1.2"/>
<line x1="41.57" y1="37.50" x2="36.78" y2="40.25" stroke="#718ae8" stroke-width="0.18" opacity="0.6"/>
<line x1="41.57" y1="37.50" x2="41.57" y2="32.00" stroke="#718ae8" stroke-width="0.18" opacity="0.6"/>
<line x1="41.57" y1="37.50" x2="36.78" y2="34.75" stroke="#718ae8" stroke-width="0.18" opacity="0.35" stroke-dasharray="0.8,1.2"/>
<line x1="41.57" y1="32.00" x2="36.78" y2="34.75" stroke="#718ae8" stroke-width="0.18" opacity="0.6"/>
<line x1="41.57" y1="32.00" x2="41.57" y2="26.50" stroke="#718ae8" stroke-width="0.18" opacity="0.6"/>
<line x1="41.57" y1="32.00" x2="36.78" y2="29.25" stroke="#718ae8" stroke-width="0.18" opacity="0.35" stroke-dasharray="0.8,1.2"/>
<line x1="41.57" y1="26.50" x2="36.78" y2="29.25" stroke="#718ae8" stroke-width="0.45" opacity="0.6"/>
<line x1="36.78" y1="51.25" x2="32.00" y2="54.00" stroke="#6497e4" stroke-width="0.45" opacity="0.6"/>
<line x1="36.78" y1="51.25" x2="36.78" y2="45.75" stroke="#6497e4" stroke-width="0.18" opacity="0.6"/>
<line x1="36.78" y1="51.25" x2="32.00" y2="48.50" stroke="#6497e4" stroke-width="0.18" opacity="0.35" stroke-dasharray="0.8,1.2"/>
<line x1="36.78" y1="45.75" x2="32.00" y2="48.50" stroke="#6497e4" stroke-width="0.18" opacity="0.6"/>
<line x1="36.78" y1="45.75" x2="36.78" y2="40.25" stroke="#6497e4" stroke-width="0.18" opacity="0.6"/>
<line x1="36.78" y1="45.75" x2="32.00" y2="43.00" stroke="#6497e4" stroke-width="0.18" opacity="0.35" stroke-dasharray="0.8,1.2"/>
<line x1="36.78" y1="40.25" x2="32.00" y2="43.00" stroke="#6497e4" stroke-width="0.18" opacity="0.6"/>
<line x1="36.78" y1="40.25" x2="36.78" y2="34.75" stroke="#6497e4" stroke-width="0.18" opacity="0.6"/>
<line x1="36.78" y1="40.25" x2="32.00" y2="37.50" stroke="#6497e4" stroke-width="0.18" opacity="0.35" stroke-dasharray="0.8,1.2"/>
<line x1="36.78" y1="34.75" x2="32.00" y2="37.50" stroke="#6497e4" stroke-width="0.18" opacity="0.6"/>
<line x1="36.78" y1="34.75" x2="36.78" y2="29.25" stroke="#6497e4" stroke-width="0.18" opacity="0.6"/>
<line x1="36.78" y1="34.75" x2="32.00" y2="32.00" stroke="#6497e4" stroke-width="0.18" opacity="0.35" stroke-dasharray="0.8,1.2"/>
<line x1="36.78" y1="29.25" x2="32.00" y2="32.00" stroke="#6497e4" stroke-width="0.45" opacity="0.6"/>
<line x1="32.00" y1="54.00" x2="32.00" y2="48.50" stroke="#56a4e0" stroke-width="0.45" opacity="0.6"/>
<line x1="32.00" y1="48.50" x2="32.00" y2="43.00" stroke="#56a4e0" stroke-width="0.45" opacity="0.6"/>
<line x1="32.00" y1="43.00" x2="32.00" y2="37.50" stroke="#56a4e0" stroke-width="0.45" opacity="0.6"/>
<line x1="32.00" y1="37.50" x2="32.00" y2="32.00" stroke="#56a4e0" stroke-width="0.45" opacity="0.6"/>
<circle cx="32.00" cy="10.00" r="0.85" fill="#56a4e0"/>
<circle cx="27.21" cy="12.75" r="0.85" fill="#49b1dc"/>
<circle cx="22.43" cy="15.50" r="0.85" fill="#3cbed8"/>
<circle cx="17.65" cy="18.25" r="0.85" fill="#2fccd4"/>
<circle cx="12.86" cy="21.00" r="0.85" fill="#22d9d0"/>
<circle cx="36.78" cy="12.75" r="0.85" fill="#6497e4"/>
<circle cx="32.00" cy="15.50" r="0.85" fill="#56a4e0"/>
<circle cx="27.21" cy="18.25" r="0.85" fill="#49b1dc"/>
<circle cx="22.43" cy="21.00" r="0.85" fill="#3cbed8"/>
<circle cx="17.65" cy="23.75" r="0.85" fill="#2fccd4"/>
<circle cx="41.57" cy="15.50" r="0.85" fill="#718ae8"/>
<circle cx="36.78" cy="18.25" r="0.85" fill="#6497e4"/>
<circle cx="32.00" cy="21.00" r="0.85" fill="#56a4e0"/>
<circle cx="27.21" cy="23.75" r="0.85" fill="#49b1dc"/>
<circle cx="22.43" cy="26.50" r="0.85" fill="#3cbed8"/>
<circle cx="46.35" cy="18.25" r="0.85" fill="#7e7cec"/>
<circle cx="41.57" cy="21.00" r="0.85" fill="#718ae8"/>
<circle cx="36.78" cy="23.75" r="0.85" fill="#6497e4"/>
<circle cx="32.00" cy="26.50" r="0.85" fill="#56a4e0"/>
<circle cx="27.21" cy="29.25" r="0.85" fill="#49b1dc"/>
<circle cx="51.14" cy="21.00" r="1.5" fill="#eaf6ff"/>
<circle cx="46.35" cy="23.75" r="0.85" fill="#7e7cec"/>
<circle cx="41.57" cy="26.50" r="0.85" fill="#718ae8"/>
<circle cx="36.78" cy="29.25" r="0.85" fill="#6497e4"/>
<circle cx="32.00" cy="32.00" r="0.85" fill="#56a4e0"/>
<circle cx="12.86" cy="43.00" r="0.85" fill="#22d9d0"/>
<circle cx="12.86" cy="37.50" r="0.85" fill="#22d9d0"/>
<circle cx="12.86" cy="32.00" r="0.85" fill="#22d9d0"/>
<circle cx="12.86" cy="26.50" r="0.85" fill="#22d9d0"/>
<circle cx="17.65" cy="45.75" r="0.85" fill="#2fccd4"/>
<circle cx="17.65" cy="40.25" r="0.85" fill="#2fccd4"/>
<circle cx="17.65" cy="34.75" r="0.85" fill="#2fccd4"/>
<circle cx="17.65" cy="29.25" r="0.85" fill="#2fccd4"/>
<circle cx="22.43" cy="48.50" r="0.85" fill="#3cbed8"/>
<circle cx="22.43" cy="43.00" r="0.85" fill="#3cbed8"/>
<circle cx="22.43" cy="37.50" r="0.85" fill="#3cbed8"/>
<circle cx="22.43" cy="32.00" r="0.85" fill="#3cbed8"/>
<circle cx="27.21" cy="51.25" r="0.85" fill="#49b1dc"/>
<circle cx="27.21" cy="45.75" r="0.85" fill="#49b1dc"/>
<circle cx="27.21" cy="40.25" r="0.85" fill="#49b1dc"/>
<circle cx="27.21" cy="34.75" r="0.85" fill="#49b1dc"/>
<circle cx="32.00" cy="54.00" r="0.85" fill="#56a4e0"/>
<circle cx="32.00" cy="48.50" r="0.85" fill="#56a4e0"/>
<circle cx="32.00" cy="43.00" r="0.85" fill="#56a4e0"/>
<circle cx="32.00" cy="37.50" r="0.85" fill="#56a4e0"/>
<circle cx="51.14" cy="43.00" r="0.85" fill="#8b6ff0"/>
<circle cx="51.14" cy="37.50" r="0.85" fill="#8b6ff0"/>
<circle cx="51.14" cy="32.00" r="0.85" fill="#8b6ff0"/>
<circle cx="51.14" cy="26.50" r="0.85" fill="#8b6ff0"/>
<circle cx="46.35" cy="45.75" r="0.85" fill="#7e7cec"/>
<circle cx="46.35" cy="40.25" r="0.85" fill="#7e7cec"/>
<circle cx="46.35" cy="34.75" r="0.85" fill="#7e7cec"/>
<circle cx="46.35" cy="29.25" r="0.85" fill="#7e7cec"/>
<circle cx="41.57" cy="48.50" r="0.85" fill="#718ae8"/>
<circle cx="41.57" cy="43.00" r="0.85" fill="#718ae8"/>
<circle cx="41.57" cy="37.50" r="0.85" fill="#718ae8"/>
<circle cx="41.57" cy="32.00" r="0.85" fill="#718ae8"/>
<circle cx="36.78" cy="51.25" r="0.85" fill="#6497e4"/>
<circle cx="36.78" cy="45.75" r="0.85" fill="#6497e4"/>
<circle cx="36.78" cy="40.25" r="0.85" fill="#6497e4"/>
<circle cx="36.78" cy="34.75" r="0.85" fill="#6497e4"/>
</svg>